/* XPM */
static char * 1ActiveUp_xpm[] = {
"20 20 2 1",
" 	c #532706",
".	c #658280",
"                    ",
"                    ",
"                    ",
" ...............    ",
".               .   ",
".               .   ",
".               .   ",
".               .   ",
".    . .        .   ",
".     .         .   ",
".               .   ",
".   . ......    .   ",
".               .   ",
".   . ......    .   ",
".               .   ",
".   . ......    .   ",
".               .   ",
".               .   ",
".               .   ",
" ...............    "};
