/* XPM */
static char * 4ActiveDown_xpm[] = {
"20 20 3 1",
" 	c None",
".	c #184A31",
"+	c #E0DCB4",
".+++++++++++++++....",
"+...............+...",
"+...............+...",
"+...............+...",
"+....+.+++++....+...",
"+...+.......+...+...",
"+...........+...+...",
"+...+.......+...+...",
"+...+.......+...+...",
"+...+.......+...+...",
"+...+...........+...",
"+...+.......+...+...",
"+....+++++.+....+...",
"+...............+...",
"+...............+...",
"+...............+...",
".+++++++++++++++....",
"....................",
"....................",
"...................."};
