/* XPM */
static char * 6Active_xpm[] = {
"20 20 3 1",
" 	c None",
".	c #184A31",
"+	c #658280",
"...+++++++++++++....",
".+..............+...",
"+.+.............+...",
"+..+............+...",
"+...+.+.........+...",
"+.....+.........+...",
"+...+++.........+...",
"+...............+...",
"+...............+...",
"+...............+...",
"+.........+++...+...",
"+.........+.....+...",
"+.........+.+...+...",
"+............+..+...",
"+.............+.+...",
"+..............+....",
".+++++++++++++......",
"....................",
"....................",
"...................."};
